Coordinates
version=1
nRows=6
nColumns=63
inDegrees=yes

Units are S.I. units (second, meters, Newtons, ...)
If the header above contains a line with 'inDegrees', this indicates whether rotational values are in degrees (yes) or radians (no).

endheader
time	pelvis_tilt	pelvis_list	pelvis_rotation	pelvis_tx	pelvis_ty	pelvis_tz	hip_flexion_r	hip_adduction_r	hip_rotation_r	knee_angle_r	knee_angle_r_beta	ankle_angle_r	subtalar_angle_r	mtp_angle_r	hip_flexion_l	hip_adduction_l	hip_rotation_l	knee_angle_l	knee_angle_l_beta	ankle_angle_l	subtalar_angle_l	mtp_angle_l	L5_S1_Flex_Ext	L5_S1_Lat_Bending	L5_S1_axial_rotation	L4_L5_Flex_Ext	L4_L5_Lat_Bending	L4_L5_axial_rotation	L3_L4_Flex_Ext	L3_L4_Lat_Bending	L3_L4_axial_rotation	L2_L3_Flex_Ext	L2_L3_Lat_Bending	L2_L3_axial_rotation	L1_L2_Flex_Ext	L1_L2_Lat_Bending	L1_L2_axial_rotation	L1_T12_Flex_Ext	L1_T12_Lat_Bending	L1_T12_axial_rotation	Abs_r3	Abs_r2	Abs_r1	Abs_t1	Abs_t2	neck_flexion	neck_bending	neck_rotation	arm_flex_r	arm_add_r	arm_rot_r	elbow_flex_r	pro_sup_r	wrist_flex_r	wrist_dev_r	arm_flex_l	arm_add_l	arm_rot_l	elbow_flex_l	pro_sup_l	wrist_flex_l	wrist_dev_l
      2.31034483	     -0.06450865	      2.20160947	     85.71271084	      0.26909857	      0.99939594	      0.37557450	     -3.92577106	      0.74724858	     13.08117350	      5.90358606	      0.10303701	     32.98757781	    -15.13852939	      0.00000000	     -6.54667716	      0.08416108	     17.12062792	      0.56043309	      0.00978140	     32.58119902	    -13.96359401	      0.00000000	      0.08249727	      0.32803989	     -0.30674359	      0.15320568	      0.43629306	     -0.32591507	      0.13553477	      0.79759619	     -0.32591507	      0.09428613	      0.79759619	     -0.26840064	      0.07660697	      0.66893895	     -0.24922917	      0.04713894	      0.50813379	     -0.23005769	      0.58926976	      3.71085287	     -1.70601584	      0.00000000	      0.00000000	     22.43078420	      0.67858300	      3.10112851	     15.42634000	     -9.66264044	     88.87863536	     36.53851435	     24.16523796	      1.27863402	      0.85987425	     15.32887889	     -5.54334276	     76.59352309	     32.77580466	     86.30972400	     -6.87246006	    -15.17158456
      2.32758621	     -0.06528525	      2.20167626	     85.72116998	      0.26909034	      0.99925799	      0.37571239	     -3.92442875	      0.75347757	     13.07663716	      5.90491259	      0.10306017	     32.98523099	    -15.13968029	      0.00000000	     -6.61093869	      0.07485130	     17.10892292	      0.56845232	      0.00992136	     32.57034257	    -13.97227568	      0.00000000	      0.09026257	      0.32885787	     -0.30770548	      0.16762661	      0.43738096	     -0.32693707	      0.14829237	      0.79958502	     -0.32693707	      0.10316109	      0.79958502	     -0.26924229	      0.08381782	      0.67060696	     -0.25001070	      0.05157603	      0.50940083	     -0.23077911	      0.64473648	      3.72010595	     -1.71136556	      0.00000000	      0.00000000	     22.43251664	      0.67624516	      3.09172078	     15.45184352	     -9.65445644	     88.87072063	     36.54150006	     24.16525994	      1.27836776	      0.86250977	     15.33968753	     -5.53803574	     76.59049153	     32.78721083	     86.30889919	     -6.87196471	    -15.17668139
      2.34482759	      0.31683671	      2.28332647	     85.57625506	      0.26917145	      0.99936639	      0.37501809	     -4.09783911	      1.14824025	     13.00075375	      5.87051301	      0.10245978	     32.78306135	    -15.04735890	      0.00000000	     -6.90550793	     -0.30034675	     17.01678764	      0.48886003	      0.00853222	     32.28839556	    -14.51432602	      0.00000000	      0.10339200	      0.37275060	     -0.30322632	      0.19200928	      0.49575830	     -0.32217797	      0.16986271	      0.90630580	     -0.32217797	      0.11816671	      0.90630580	     -0.26532303	      0.09600981	      0.76011302	     -0.24637139	      0.05907819	      0.57739068	     -0.22741974	      0.73851869	      4.21662932	     -1.68645384	      0.00000000	      0.00000000	     22.05034303	      0.02475409	      2.11403230	     15.51018877	     -9.84841840	     88.95265676	     36.77571064	     24.18923855	      1.37508391	      2.06349273	     15.22670964	     -5.42699902	     76.71738400	     32.78532800	     86.42084385	     -7.10327987	    -15.32663131
      2.36206897	      0.31109887	      2.27633739	     85.58565035	      0.26912393	      0.99922995	      0.37506480	     -4.08950929	      1.15137032	     12.99982511	      5.86927635	      0.10243820	     32.78032828	    -15.04786868	      0.00000000	     -6.92851184	     -0.29558590	     17.01429850	      0.57032738	      0.00995409	     32.28564651	    -14.51563318	      0.00000000	      0.10946379	      0.37340367	     -0.30304947	      0.20328521	      0.49662688	     -0.32199006	      0.17983807	      0.90789368	     -0.32199006	      0.12510617	      0.90789368	     -0.26516828	      0.10164808	      0.76144476	     -0.24622769	      0.06254761	      0.57840228	     -0.22728710	      0.78188893	      4.22401698	     -1.68547023	      0.00000000	      0.00000000	     22.05081860	      0.02410365	      2.11347030	     15.53986881	     -9.84488522	     88.94118517	     36.77629097	     24.18875797	      1.37520924	      2.06464603	     15.25770911	     -5.42974484	     76.70967758	     32.78491300	     86.42155995	     -7.10566227	    -15.32685831
      2.37931034	      0.50860491	      2.19698198	     85.33033497	      0.26910569	      0.99914828	      0.37538463	     -3.91529678	      1.37348709	     13.17591813	      6.02219408	      0.10510711	     32.56273105	    -15.29626902	      0.00000000	     -6.93397347	     -0.44958079	     16.84971044	      0.52355294	      0.00913772	     31.86657708	    -15.24114984	      0.00000000	      0.11564353	      0.40374059	     -0.22342891	      0.21476160	      0.53697498	     -0.23739322	      0.18999076	      0.98165487	     -0.23739322	      0.13216899	      0.98165487	     -0.19550030	      0.10738658	      0.82330781	     -0.18153599	      0.06607871	      0.62539417	     -0.16757168	      0.82603017	      4.56719430	     -1.24264457	      0.00000000	      0.00000000	     21.83452499	     -0.28123246	      1.66921470	     15.16836168	    -10.18486709	     87.02236787	     37.19401682	     23.38965526	      1.44381814	      4.26460133	     15.87743611	     -5.09238357	     78.78927300	     32.43041655	     86.95680651	     -9.14775505	    -15.53047265
      2.39655172	      0.54147250	      2.12562189	     85.18317688	      0.26908818	      0.99905600	      0.37596996	     -3.72363419	      1.42468780	     13.13346907	      6.17804567	      0.10782724	     32.56125235	    -15.28417684	      0.00000000	     -6.84636618	     -0.45336818	     16.37135427	      0.54237046	      0.00946615	     31.79989813	    -15.20960048	      0.00000000	      0.11159587	      0.41312294	     -0.18394125	      0.20724469	      0.54945351	     -0.19543758	      0.18334085	      1.00446711	     -0.19543758	      0.12754292	      1.00446711	     -0.16094860	      0.10362792	      0.84244030	     -0.14945227	      0.06376588	      0.63992743	     -0.13795594	      0.79711814	      4.67332931	     -1.02302607	      0.00000000	      0.00000000	     21.64181786	     -0.17305204	      1.69279886	     15.15081776	    -10.29179225	     86.48599568	     37.31894569	     23.04792685	      1.39181018	      4.85175250	     16.28647576	     -4.93788172	     79.87338754	     32.25356495	     87.23910743	    -10.41975623	    -15.43916194
